<?xml version="1.0" standalone="no"?>
<!DOCTYPE svg PUBLIC "-//W3C//DTD SVG 1.1//EN" "http://www.w3.org/Graphics/SVG/1.1/DTD/svg11.dtd">
<svg xmlns="http://www.w3.org/2000/svg" fill-rule="evenodd" width="2085.000px" height="1327.000px" viewBox="512.000 256.000 1024.000 1024.000">
	<g id="Curve">
		<path fill="#00A7E1" d="m1401.002,224.741l-193.298,-0.000l641.340,902.092l193.376,-0.000z"/>
		<path fill="#3D9B00" d="m1207.704,224.741l-193.370,-0.000l641.340,902.092l193.370,-0.000z"/>
		<path fill="#FFC610" d="m1014.335,224.741l-193.376,-0.000l641.340,902.092l193.376,-0.000z"/>
		<path fill="#FF1F1F" d="m820.958,224.741l-193.370,-0.000l641.412,902.092l193.298,-0.000z"/>
	</g>
	<g id="text">
		<path style="fill:rgb(0,0,0);" d="m683.420,838.587l0.000,76.427l372.008,-0.000l0.000,-81.388l-242.813,-0.000l236.530,-282.808l0.000,-76.558l-347.138,-0.000l0.000,81.531l218.074,-0.000zm543.090,-154.281l-154.720,231.245l109.430,-0.000l98.303,-152.724l96.340,152.724l115.582,-0.000l-153.803,-230.460l141.499,-210.830l-106.288,-0.000l-89.533,140.946l-86.523,-140.946l-112.440,-0.000z"/>
	</g>
</svg>
